<?xml version="1.0" encoding="UTF-8" standalone="no"?>
<svg
   viewBox="0 0 139.95497 140.01839"
   fill="none"
   version="1.1"
   id="svg55"
   sodipodi:docname="Instagram.svg"
   inkscape:version="1.1.2 (b8e25be833, 2022-02-05)"
   xmlns:inkscape="http://www.inkscape.org/namespaces/inkscape"
   xmlns:sodipodi="http://sodipodi.sourceforge.net/DTD/sodipodi-0.dtd"
   xmlns="http://www.w3.org/2000/svg"
   xmlns:svg="http://www.w3.org/2000/svg">
  <sodipodi:namedview
     id="namedview57"
     pagecolor="#505050"
     bordercolor="#eeeeee"
     borderopacity="1"
     inkscape:pageshadow="0"
     inkscape:pageopacity="0"
     inkscape:pagecheckerboard="0"
     showgrid="false"
     inkscape:zoom="5.7304965"
     inkscape:cx="169.44431"
     inkscape:cy="69.976485"
     inkscape:window-width="2560"
     inkscape:window-height="1017"
     inkscape:window-x="-8"
     inkscape:window-y="-8"
     inkscape:window-maximized="1"
     inkscape:current-layer="svg55"
     fit-margin-top="0"
     fit-margin-left="0"
     fit-margin-right="0"
     fit-margin-bottom="0" />
  <g
     clip-path="url(#clip0_2132_7)"
     id="g48"
     transform="translate(-200.04903,-0.01220712)">
    <path
       d="m 237.764,0.935753 c 18.73,-1.21 37.54,-1.080001 56.3,-0.470001 8.38,0.13 17.04,1.180008 24.5,5.270008 9.47,4.90004 16.43,14.04994 19.01,24.34994 3.38,13.04 1.99,26.6301 2.43,39.9501 -0.49,14.04 1.14,28.4699 -3.06,42.1002 -3.5,11.49 -12.77,20.94 -24.17,24.7 -7.91,2.82 -16.42,2.63 -24.69,2.95 -14.35,0.38 -28.7,0.33 -43.04,-0.24 -5.99,-0.16 -12.08,-0.7 -17.76,-2.72 -9.16,-3.1 -17.12,-9.71 -21.55,-18.33 -4.35,-8.43 -5.44,-18.1 -5.5,-27.4602 -0.22,-12.33 -0.24,-24.66 -0.08,-37 -0.03,-11.2 0.44,-22.9501 5.87,-33.0301 6.15,-11.67996 18.78,-18.96995 31.74,-20.069947 z M 218.674,21.7557 c -5.6,6.73 -7.21,15.7901 -7.33,24.3101 -0.14,11.66 -0.66,23.3099 -0.28,34.9499 0.45,8.68 -0.39,17.55 1.95,26.0303 1.77,7.13 6.34,13.57 12.8,17.18 9.43,5.52 20.76,4.05 31.21,4.61 14.27,0.83 28.54,-0.12 42.81,-0.49 10.23,-0.43 20.61,-5.95 25.03,-15.49 5.75,-12.11 3.21,-25.8703 4.24,-38.7803 0.08,-9.68 -0.38,-19.3599 -0.44,-29.0399 -0.11,-10.44 -3.35,-22.03 -12.57,-28.02 -9.29,-6.71 -21.28,-5.2901 -32.07,-5.7901 -14.36,-0.86 -28.72,0.05 -43.08,0.45 -8.34,0.28 -16.84,3.56 -22.27,10.08 z"
       fill="currentColor"
       id="path36" />
    <path
       d="m 306.874,24.8957 c 4.54,-0.55 9.25,3.4201 9,8.1201 0.33,5.01 -5,9.41 -9.85,8.11 -4.07,-0.79 -7.09,-5.05 -6.41,-9.14 0.43,-3.71 3.64,-6.5501 7.26,-7.0901 z"
       fill="currentColor"
       id="path40" />
    <path
       d="m 266.644,35.9358 c 10.46,-0.98 21.29,3.25 28.33,11.07 5.65,6.22 9.08,14.56 8.87,23.02 0.25,10.83 -5.4,21.43 -14.13,27.72 -5.69,4.1502 -12.66,6.2902 -19.66,6.5302 -9.68,-0.02 -19.32,-4.18 -25.73,-11.4803 -7.48,-8.15 -10.53,-20.0999 -7.81,-30.8199 3.23,-13.9 15.93,-24.82 30.13,-26.04 z m 0.27,11 c -10.59,1.18 -19.51,10.37 -20.33,20.99 -0.97,9.52 4.68,19.2999 13.44,23.1499 7.74,3.82 17.52,2.5201 24.18,-2.8899 6,-4.76 9.44,-12.5701 8.59,-20.2301 -0.63,-12.65 -13.4,-22.8799 -25.88,-21.0199 z"
       fill="currentColor"
       id="path42" />
  </g>
  <defs
     id="defs53">
    <clipPath
       id="clip0_2132_7">
      <rect
         width="340.004"
         height="140.041"
         fill="#ffffff"
         transform="translate(0,0.012207)"
         id="rect50"
         x="0"
         y="0" />
    </clipPath>
  </defs>
</svg>
